<!-- Created with Inkscape (http://www.inkscape.org/) -->
<svg width="132.17mm" height="44.578mm" version="1.1" viewBox="0 0 132.17 44.578" xmlns="http://www.w3.org/2000/svg">
  <g transform="translate(22.994 -115.96)">
    <rect x="-22.394" y="116.56" width="43.378" height="43.378" ry="11.208" fill="none" stroke="#fff" stroke-linecap="round" stroke-linejoin="round" stroke-width="1.2" style="paint-order:markers fill stroke"/>
    <path d="m-8.946 122.81-4.4432 7.1087c-3.7439 5.9898-4.4383 7.1211-4.4122 7.1882 0.01705 0.044 2.0159 3.3034 4.4419 7.2437l4.4109 7.1637h7.9653v8.6736h0.65607v-8.6739l7.9567-0.022 4.3742-7.1814c2.4058-3.95 4.3808-7.2061 4.3891-7.2362 0.0083-0.03-1.9607-3.2537-4.3755-7.1635l-4.3903-7.1099h-8.2866zm0.3609 0.6745 15.857 0.022 4.1835 6.7744c3.863 6.2553 4.18 6.7808 4.1383 6.8571-0.02479 0.045-1.9149 3.1529-4.2003 6.9053l-4.1554 6.8223h-7.5653l2e-3 -3.855 2e-3 -3.8551 4.1721-3.9553c2.2946-2.1754 4.172-3.9656 4.1721-3.9779 7.2e-5 -0.012-0.0969-0.1269-0.21554-0.255l-0.2158-0.2327-0.19446 0.1875c-0.10692 0.1035-1.8839 1.79-3.9491 3.7486l-3.7549 3.5615-0.0091-6.8019-0.0091-6.8017h-0.65589l-0.0091 4.3014-0.0091 4.3016-4.3199-4.0061-4.3199-4.0064-0.2277 0.2231c-0.12532 0.1226-0.22795 0.2331-0.22795 0.2454 0 0.012 2.0505 1.923 4.5568 4.2456l4.5568 4.2226v12.71h-7.5739l-0.05304-0.083c-0.32115-0.4978-8.4241-13.683-8.4272-13.712-0.0022-0.022 1.8985-3.0872 4.2239-6.8116z" fill="#fff" stroke="#808080" stroke-linecap="round" stroke-linejoin="round" stroke-width=".04442" style="paint-order:markers fill stroke"/>
    <g clip-rule="evenodd" fill="#fff" fill-rule="evenodd" shape-rendering="geometricPrecision" stroke-width=".005457">
      <path class="fil0" d="m45.369 124.77v22.412c0 0.4147 1.6262 0.2783 2.1228 0.2783 0.8622 0 0.64938-0.8513 0.64938-1.8063l-5e-3 -16.726c0-0.5347-0.0491-0.4475 0.0928-0.5512 0.0437 0.1747 1.1023 2.112 1.266 2.4339l0.95497 1.8171c0.5948 1.1897 1.3424 2.4884 1.9372 3.6944l1.6207 3.0505c0.10364 0.2019 0.19099 0.4037 0.30559 0.6166l1.6316 3.0777c0.58935 1.1897 1.3588 2.5102 1.9263 3.6671 0.25102 0.502 0.50204 0.7258 1.1732 0.7258h1.8008c0.5457 0 1.015-0.393 1.015-0.9277v-21.855c0-0.3111-0.20192-0.6439-0.50751-0.6439h-1.8008c-0.32741 0-0.50204 0.3437-0.51296 0.693l5e-3 18.39-0.64939-1.2005c-0.10915-0.2183-0.21827-0.3929-0.32195-0.6003l-0.63301-1.2224c-0.57298-1.1569-1.326-2.4666-1.9263-3.6616-0.10915-0.2237-0.20737-0.3656-0.32196-0.6003l-0.95496-1.8171c-0.58936-1.1897-1.3315-2.4775-1.9263-3.6671l-2.8758-5.4843c-0.21283-0.4256-0.42564-0.8293-1.0641-0.8293h-2.1719c-0.22918 0-0.43655 0.1089-0.56207 0.2237-0.0983 0.087-0.26738 0.3438-0.26738 0.513z" image-rendering="optimizeQuality"/>
      <path class="fil0" d="m93.461 126.34c0.6603 0 0.6221 0.3166 0.8513 1.0914 0.14187 0.4857 0.26192 0.9605 0.38743 1.4133 0.50751 1.8064 1.015 3.7926 1.5389 5.5772l0.78035 2.7774h-6.9303c0.0874-0.1746 0.13641-0.4528 0.2019-0.6767l2.5047-9.0475c0.1146-0.4039 0.20737-1.1351 0.66575-1.1351zm-0.0928-2.5375h0.53478c0.95497 0.065 1.8554 0.5075 2.4447 1.3642 0.27831 0.4093 0.39291 0.9115 0.54571 1.4407l2.2046 7.7708c0.58391 2.0845 1.1787 4.1362 1.7681 6.2318 0.45838 1.6426 1.135 3.8417 1.5498 5.4679 0.1146 0.4529 0.53479 1.3806-0.36015 1.3806h-1.7571c-0.45838 0-0.58935-0.3165-0.68212-0.6603l-1.9972-7.0559h-8.1309c-0.15826 0.6821-0.39836 1.3534-0.57299 2.0573l-1.4079 5.0641c-0.0983 0.3383-0.26739 0.5948-0.69849 0.5948h-1.7572c-0.49112 0-0.55115-0.2674-0.55115-0.6058 0-0.1909 0.14188-0.6002 0.20192-0.8076l5.0859-17.882c0.15279-0.5402 0.31105-1.0423 0.44747-1.5825 0.25103-0.9877 0.63301-1.8827 1.6098-2.3628 0.48021-0.2401 1.0041-0.382 1.5225-0.4148z" image-rendering="optimizeQuality"/>
      <path class="fil0" d="m66.111 134.33c0 3.6071-0.30013 7.1759 1.8499 10.21l0.76943 0.9386c1.2333 1.2279 2.8212 1.899 4.5784 2.1229 1.4079 0.1745 4.2237-0.045 5.5606-0.1856 0.44202-0.05 1.7899-0.142 2.09-0.4093 0.15279-0.1473 0.21282-0.3874 0.21282-0.6658v-10.303c0-0.4528-0.2019-0.8293-0.69303-0.8293-0.59481 0-1.779-0.1147-2.0409 0.1746-0.0983 0.1089-0.17462 0.2727-0.17462 0.4693v9.0093c-0.23464 0-0.65483 0.038-0.90039 0.077l-0.90041 0.066c-2.5047 0.033-4.5402 0.4256-6.27-2.1446-0.91131-1.3588-1.1732-3.4543-1.1732-5.1569 0-1.8008-0.10915-5.195 0.26194-6.8102 0.25648-1.1078 0.58389-1.9045 1.2005-2.7285 0.12551-0.1746 0.22919-0.2565 0.37652-0.4039 0.29467-0.3 0.51842-0.4638 0.87859-0.693 1.2605-0.7967 3.2851-0.6384 4.8185-0.6384l2.1664 0.05c0.68758 0.033 1.3424 0.1363 2.0791 0.1363 0.21829 0 0.32743-0.1089 0.32743-0.322v-1.5279c0-0.5511-0.46383-0.5129-1.0477-0.6112-1.7299-0.2892-3.9126-0.3546-5.7462-0.3546-1.3479 0-2.8922 0.4038-3.8035 0.8621-0.96588 0.4858-1.9263 1.2662-2.5429 2.1665-1.4297 2.0682-1.8772 4.0654-1.8772 7.5033z" image-rendering="optimizeQuality"/>
      <path class="fil0" d="m27.994 129.71v11.967c0 1.9263 0.39836 3.6781 1.8881 4.7695 1.0314 0.7584 2.4502 1.0803 3.7981 1.1895l6.4392-0.07c1.2224-0.1856 1.0914 0.3438 1.0914-2.1447 0-0.1255-0.0491-0.2291-0.1255-0.2946-0.15826-0.1419-0.84038-0.076-1.2169-0.076h-5.1732c-1.0478 0-2.2646-0.1202-2.8649-0.5513-0.70941-0.5075-0.92769-1.3424-0.92769-2.5429v-5.4514h9.5661c0.92768 0 0.74214-1.0151 0.74214-1.801 0-0.4147-0.33832-0.6929-0.74214-0.6929h-9.5661v-4.4856c0-2.7831 1.2497-3.0941 3.8362-3.0941h6.0518c0.28922-0.028 0.42018-0.1202 0.42018-0.4531v-1.4788c0-0.6002-0.51295-0.5512-1.1569-0.5566l-1.6644-0.092c-0.71487 0-1.5498-0.033-2.4174-0.044h-1.4515c-1.015 0.022-1.9972 0.1089-2.7994 0.3491-1.5716 0.4693-2.7285 1.2497-3.3178 2.8758-0.26194 0.7313-0.40927 1.6863-0.40927 2.6849z" image-rendering="optimizeQuality"/>
      <path class="fil0" d="m102.38 151.57c0 1.0041-0.1146 1.2279 0.51841 1.3806 1.4843 0.3547 4.0109 0.1693 5.135-0.9495 0.70941-0.7148 1.1405-1.8062 1.1405-3.2033v-24.207c0-0.251-0.25103-0.5565-0.50749-0.5565h-1.8499c-0.27285 0-0.45838 0.2128-0.51841 0.4473-0.0928 0.3383-0.0328 21.577-0.0328 22.979 0 2.8376 0.0819 3.3723-2.592 3.3723-0.79126 0-1.2933-0.1035-1.2933 0.7367z" image-rendering="optimizeQuality"/>
    </g>
    <g transform="matrix(1.1003 0 0 1.1003 -87.617 -2090.1)" clip-rule="evenodd" fill="#fff" fill-rule="evenodd" shape-rendering="geometricPrecision" stroke-width=".0049594">
      <path class="fil0" d="m114.56 2039.8c0-0.3075-0.0298-0.501 0.29261-0.7142 0.46123 0.1041 1.3837 0.243 1.3837 0.6298 0 0.6348-0.48107 0.5456-1.0911 0.5456-0.30253 0-0.58522-0.1587-0.58522-0.4612zm0.0397-2.4351c0-0.4613-0.01-0.7985 0.83815-0.7985 0.7092 0 0.75879 0.3521 0.75879 0.7985 0 0.7042-1.5969 0.6447-1.5969 0zm-0.59017-0.129c0 0.3273 0.12398 0.5208 0.25293 0.7142-0.10911 0.1636-0.2083 0.2083-0.2083 0.4612 0 0.248 0.0992 0.4116 0.29261 0.4612v0.084c-0.10415 0.04-0.15374 0.1191-0.2083 0.2133-0.0595 0.094-0.0992 0.1736-0.12398 0.2976-0.16367 0.7736 0.38187 1.2547 1.2151 1.2547h0.0347c0.70424 0 1.5622-0.03 1.5622-1.0068 0-1.0861-2.2665-0.9075-2.2665-1.3043 0-0.3819 0.30253-0.084 0.75384-0.084 1.6366 0 1.6713-1.1456 1.2597-1.7606 0.54554 0 0.3174-0.4612 0.16862-0.4612-1.1506 0-2.7326-0.248-2.7326 1.1307z" image-rendering="optimizeQuality"/>
      <path class="fil0" d="m143.58 2036.3c-0.0595-0.248-0.0694-0.2083-0.42156-0.2083-0.0992 0-0.16862 0.069-0.16862 0.1636v3.1096c0 0.1686 0.11903 0.124 0.42155 0.124 0.27773 0 0.16863-0.9621 0.16863-1.2597v-1.468c1.468-0.7043 1.1754 0.3918 1.1754 1.9738 0 0.8531-0.1091 0.7539 0.42156 0.7539 0.19837 0 0.12398-0.3918 0.12398-0.5852 0-0.4513 0.0546-1.9888-0.0397-2.1822 0.38187-0.1884 1.101-0.3769 1.2299 0.2777 0.0446 0.2431 0.0298 1.7606 0.0248 2.1574-5e-3 0.372-0.0446 0.3323 0.42155 0.3323 0.0992 0 0.12895-0.03 0.12895-0.124v-2.3508c0-0.2678-0.10911-0.5406-0.24302-0.6844-0.42651-0.4711-1.3242-0.2678-1.7755-0.03-0.30253-0.4563-1.0812-0.2034-1.468 0z" image-rendering="optimizeQuality"/>
      <path class="fil0" d="m140.72 2035.4c0.14382 0.615 0.44635 1.4829 0.59017 2.0978h-1.3043l0.52074-1.9193c0.0397-0.1487 0.0198-0.1636 0.19342-0.1785zm-1.8449 4.0271c0 0.124 0.28765 0.084 0.46123 0.084 0.18846 0 0.21326-0.3521 0.31245-0.6943 0.0645-0.2232 0.15374-0.6448 0.23309-0.8134h1.5523l0.41163 1.4333c0.0942 0.119 0.35212 0.074 0.55546 0.074 0.0595-0.2579-0.55546-2.197-0.63481-2.4698-0.11903-0.4067-0.2331-0.8134-0.35708-1.2399-0.14383-0.5207-0.16366-0.9076-0.77368-0.9076-0.53562 0-0.60009 0.4067-0.71911 0.8332-0.11407 0.3968-0.2331 0.8134-0.35708 1.2399l-0.51579 1.83c-0.0397 0.129-0.16862 0.5208-0.16862 0.6299z" image-rendering="optimizeQuality"/>
      <path class="fil0" d="m149.21 2039-0.7588-0.04v-2.3954c0.46619-0.01 1.468-0.3274 1.468 0.8381 0 0.6249 0.12398 1.597-0.7092 1.597zm-1.344-3.9478c0 0.7092-0.0645 3.8882 0.0397 4.3247 0.9175 0.079 2.6037 0.6447 2.6037-1.5077 0-2.2317-1.1853-1.8052-2.0582-1.8052 0-1.4383 0.12399-1.2201-0.54554-1.2201-0.0198 0.094-0.0397 0.094-0.0397 0.2083z" image-rendering="optimizeQuality"/>
      <path class="fil0" d="m107.34 2036.2c0 0.7191-0.11406 2.4748 0.24302 2.9063 0.38683 0.4711 1.339 0.3719 1.9838 0.3719 0.21326 0 0.18846-0.04 0.37692-0.045 0-0.6348 0.1587-0.5059-1.0911-0.5009-1.0564 0-0.88278-0.025-0.88278-1.6366h1.8499c0.20829 0 0.17854-0.5059-0.0446-0.5059h-1.8052c0-1.5672-0.21821-1.4382 1.473-1.4283 0.56042 0 0.5009 0.094 0.5009-0.5059-0.23805 0-0.28765-0.04-0.54554-0.04-1.2002 0-2.0582-0.1388-2.0582 1.3837z" image-rendering="optimizeQuality"/>
      <path class="fil0" d="m124.22 2035.1v4.161c0 0.3025 0.16862 0.248 0.42156 0.248 0.22813 0 0.16862-0.3075 0.16366-0.5456v-2.2218c0.19838-0.094 0.55546-0.1686 0.8431-0.1686 0.66457 0 0.62985 0.5505 0.62985 1.2151v0.9224c0 0.7786-0.10911 0.7985 0.4166 0.7985 0.12894 0 0.16862-0.119 0.16862-0.248 0-0.6993 0.0992-2.2466-0.2083-2.7326-0.45131-0.7092-1.2994-0.4216-1.8499-0.2926 0-1.6218 0.12398-1.3441-0.54554-1.3441-0.0198 0.094-0.0397 0.094-0.0397 0.2083z" image-rendering="optimizeQuality"/>
      <path class="fil0" d="m118.72 2036.5c0.61497 0 0.83815 0.3323 0.83815 0.9621h-1.597c0-0.5158 0.1835-0.9621 0.7588-0.9621zm-1.344 1.0464c0 1.8648 0.734 2.088 2.2863 1.8697 0.41164-0.06 0.35708-0.05 0.35708-0.481-0.73895-0.1736-2.0582 0.6249-2.0582-1.0068h2.0185c0.18846 0 0.12398-0.2182 0.12398-0.6745 0-1.587-2.7277-1.8994-2.7277 0.2926z" image-rendering="optimizeQuality"/>
      <path class="fil0" d="m153.91 2036.5h0.0397c0.61993 0 0.79847 0.3472 0.79847 0.9621h-1.5969c0-0.5455 0.22318-0.9621 0.7588-0.9621zm-1.3043 0.7538c0 0.7787-0.1091 1.3788 0.38684 1.8797 0.58026 0.5901 1.6168 0.2727 2.2169 0.2182v-0.4166c-0.46123-0.1091-1.5077 0.2975-1.8995-0.243-0.11903-0.1687-0.15871-0.4811-0.15871-0.7638h2.0185c0.36204 0 0.12398-1.1754-0.19342-1.5325-0.64969-0.729-2.3706-0.4959-2.3706 0.858z" image-rendering="optimizeQuality"/>
      <path class="fil0" d="m134.88 2038.6c0-0.8381 0.28269-0.7984 1.344-0.7984v0.8827c0 0.2579-1.344 0.6299-1.344-0.084zm-0.37692-2.3954c0 0.3075-0.0347 0.3769 0.27773 0.3323 0.35708-0.054 0.60009-0.035 0.98197-0.035 0.51082 0 0.46123 0.5654 0.46123 0.8778-0.90758 0-1.9292-0.02-1.9292 1.0514 0 0.9919 0.7588 1.2052 1.5077 0.9621 0.14878-0.049 0.27772-0.1289 0.42155-0.1636 0.0595 0.243 0.0694 0.2083 0.42155 0.2083 0.0992 0 0.16862-0.069 0.16862-0.1686v-1.9689c0-1.4085-0.93237-1.3589-1.8896-1.2647-0.16366 0.02-0.42155 0.01-0.42155 0.1686z" image-rendering="optimizeQuality"/>
      <path class="fil0" d="m162.13 2038.7c0-0.7885 0.0595-0.8381 1.344-0.8381v0.8827c0 0.253-1.344 0.62-1.344-0.045zm-0.37692-2.4351c0 0.3075-0.0347 0.3769 0.27773 0.3323 0.3422-0.05 0.53066-0.035 0.89766-0.035 0.56537 0 0.54554 0.4612 0.54554 0.8778-0.68937 0-1.9292-0.045-1.9292 0.9274 0 0.3819-0.0248 0.6398 0.27773 0.9374 0.42155 0.4017 1.2151 0.238 1.6515-0.055 5e-3 0.2926 0.0843 0.248 0.42155 0.248 0.0942 0 0.12399-0.03 0.12399-0.124v-2.3508c0-0.605-0.48603-0.9671-1.1308-0.9671-0.22813 0-1.1357-0.01-1.1357 0.2083z" image-rendering="optimizeQuality"/>
      <path class="fil0" d="m128.08 2038.5c0-0.7191 0.6844-0.6298 1.3837-0.6298v0.8827c0 0.2034-1.3837 0.7638-1.3837-0.2529zm-0.37692-2.1821c0 0.4364 0.10415 0.2529 1.2151 0.2529 0.49594 0 0.54554 0.3868 0.54554 0.8778-0.734 0-1.9292-0.02-1.9292 0.8828 0 0.61 0.0248 1.22 1.0464 1.22 0.35212 0 0.64969-0.1686 0.88279-0.2926 0 0.2827 0.0248 0.248 0.42155 0.248 0.0942 0 0.12398-0.03 0.12398-0.124v-2.2665c0-0.2926-0.14382-0.6149-0.28764-0.7588-0.37692-0.3818-1.1109-0.2975-1.5969-0.2479-0.17359 0.02-0.42156 0.02-0.42156 0.2083z" image-rendering="optimizeQuality"/>
      <path class="fil0" d="m156.59 2036.3c-0.0248-0.253-0.10415-0.2083-0.42156-0.2083-0.12894 0-0.16862 0.119-0.16862 0.2479v2.9013c0 0.3025 0.16862 0.248 0.42156 0.248 0.22813 0 0.16862-0.3075 0.16862-0.5456v-2.1821c0.27773-0.064 0.44139-0.2083 0.79847-0.2083 0.88278 0 0.66952 0.853 0.66952 2.1375 0 0.7786-0.1091 0.7985 0.42156 0.7985 0.12894 0 0.16862-0.119 0.16862-0.248 0-0.6546 0.0843-2.2714-0.20334-2.7426-0.30253-0.5009-0.9175-0.5306-1.4333-0.362-0.14878 0.05-0.27773 0.1289-0.42155 0.1637z" image-rendering="optimizeQuality"/>
      <path class="fil0" d="m111.25 2036.3c-0.0248-0.253-0.10415-0.2083-0.42156-0.2083-0.0992 0-0.16862 0.069-0.16862 0.1636v3.065c0 0.2132 0.2331 0.1686 0.42155 0.1686 0.22814 0 0.16863-0.3075 0.16863-0.5456v-2.1821c0.27773-0.064 0.44139-0.2083 0.79847-0.2083 0.87286 0 0.66952 0.8679 0.66952 2.0978v0.4613c-0.01 0.4166-0.0546 0.3769 0.42155 0.3769 0.0942 0 0.12399-0.03 0.12399-0.124v-2.2665c0-0.2876-0.12399-0.5852-0.26285-0.7488-0.5505-0.6448-1.5523-0.099-1.7507-0.05z" image-rendering="optimizeQuality"/>
      <path class="fil0" d="m121.41 2036.3c-0.0248-0.253-0.10415-0.2083-0.42155-0.2083-0.0992 0-0.16863 0.069-0.16863 0.1636v3.065c0 0.2132 0.2331 0.1686 0.42156 0.1686 0.22813 0 0.16862-0.3075 0.16862-0.5456v-2.1821c0.26285-0.059 0.44139-0.2083 0.79351-0.2083 0.87286 0 0.67448 0.9125 0.67448 2.0978 0 0.9473-0.1091 0.8382 0.42156 0.8382 0.0942 0 0.12398-0.03 0.12398-0.124v-2.2268c0-0.9621-0.80839-1.2547-1.592-1.0018-0.14878 0.05-0.27773 0.1289-0.42155 0.1637z" image-rendering="optimizeQuality"/>
      <path class="fil0" d="m167.22 2040.5c0.41659 0.035 1.344 0.2331 1.344-0.7985v-4.7015c0-0.1736-0.13391-0.129-0.46123-0.129-0.14878 0-0.12895 0.1042-0.13391 0.248l0.01 4.5032c0 0.2975-0.0595 0.4414-0.3422 0.4562-0.47115 0.03-0.41659-0.099-0.41659 0.4216z" image-rendering="optimizeQuality"/>
      <path class="fil0" d="m159.74 2035.5v0.5505c-0.60505 0-0.71416-0.069-0.71416 0.2479 0 0.2282 0.46619 0.2133 0.71416 0.2133v2.0135c0 0.8828 0.31741 0.9671 0.96214 0.9671 0.46618 0 0.42155-0.1041 0.42155-0.3372 0-0.2678-0.33228-0.01-0.75384-0.2083-0.0992-0.4117-0.0446-1.8747-0.0446-2.3954 0.367 0 0.45131 0.03 0.75879-0.04 0.12895-0.5654-0.0496-0.4612-0.75879-0.4612 0-0.5009 0.0744-0.7588-0.12399-0.7588-0.19342 0-0.46123 0.025-0.46123 0.2083z" image-rendering="optimizeQuality"/>
      <path class="fil0" d="m164.91 2035v4.3693c0 0.1686 0.11902 0.124 0.42155 0.124 0.12895 0 0.16862-0.119 0.16862-0.248v-4.0767c0-0.1438-0.0347-0.1587-0.0446-0.2926-0.2083 0-0.54554-0.069-0.54554 0.124z" image-rendering="optimizeQuality"/>
      <path class="fil0" d="m169.99 2036.3c-0.0198-0.253-0.0992-0.2083-0.4166-0.2083-0.12894 0-0.16862 0.119-0.16862 0.2479v2.9013c0 0.3025 0.16862 0.248 0.42156 0.248 0.22813 0 0.16862-0.3075 0.16862-0.5456l-5e-3 -2.1424c0.15374-0.079 0.29756-0.1538 0.47115-0.1984 0.47114-0.129 0.49594 0.119 0.49594-0.4315 0-0.248-0.49594-0.079-0.59513-0.045-0.16862 0.054-0.2331 0.1339-0.37196 0.1736z" image-rendering="optimizeQuality"/>
      <path class="fil0" d="m131.36 2036.3c0-0.2827 0.0198-0.2479-0.37691-0.2479-0.0992 0-0.16862 0.069-0.16862 0.1636v3.065c0 0.2132 0.23309 0.1686 0.42155 0.1686 0.22813 0 0.16862-0.3075 0.16862-0.5456v-2.1424c0.75879-0.5059 0.96213 0.099 0.96213-0.6299 0-0.3174-0.75879 0-1.0068 0.1686z" image-rendering="optimizeQuality"/>
      <path class="fil0" d="m151.26 2036.2v3.1492c0 0.1686 0.11902 0.124 0.42155 0.124 0.0992 0 0.12398-0.03 0.12398-0.124v-3.1492c0-0.1687-0.11902-0.124-0.41659-0.124-0.0992 0-0.12894 0.025-0.12894 0.124z" image-rendering="optimizeQuality"/>
      <path class="fil0" d="m132.99 2036.2v3.1492c0 0.1686 0.11903 0.124 0.42155 0.124 0.0992 0 0.12399-0.03 0.12399-0.124v-3.1492c0-0.1687-0.11903-0.124-0.41659-0.124-0.0992 0-0.12895 0.025-0.12895 0.124z" image-rendering="optimizeQuality"/>
      <path class="fil0" d="m171.29 2038.8c0 0.7191-0.0397 0.6695 0.42155 0.6695 0.2331 0 0.16367-0.3273 0.16367-0.6695 0-0.2431-0.58522-0.2431-0.58522 0z" image-rendering="optimizeQuality"/>
      <path class="fil0" d="m151.26 2034.9c0 0.729-0.0843 0.6298 0.42155 0.6298 0.22813 0 0.16862-0.2926 0.16862-0.5902 0-0.2132-0.24797-0.1636-0.46123-0.1636-0.0992 0-0.12894 0.025-0.12894 0.124z" image-rendering="optimizeQuality"/>
      <path class="fil0" d="m132.99 2034.9c0 0.729-0.0843 0.6298 0.42155 0.6298 0.22814 0 0.26781-0.7538 0-0.7538-0.30252 0-0.42155-0.045-0.42155 0.124z" image-rendering="optimizeQuality"/>
    </g>
  </g>
</svg>
