<!-- Created with Inkscape (http://www.inkscape.org/) -->
<svg width="76.121mm" height="23.956mm" version="1.1" viewBox="0 0 76.121 23.956" xmlns="http://www.w3.org/2000/svg">
  <g transform="translate(46.376 -182.21)" fill="#17a85f">
    <g transform="matrix(.32211 0 0 .32211 53.274 -4.0646)" clip-rule="evenodd" fill-rule="evenodd" shape-rendering="geometricPrecision" stroke-width=".01">
      <path class="fil0" d="m-189.97 595.34v41.07c0 0.76 2.98 0.5 3.89 0.5 1.58 0 1.19-1.56 1.19-3.3l-0.01-30.65c0-0.98-0.09-0.82 0.17-1.01 0.08 0.32 2.02 3.87 2.32 4.45l1.75 3.34c1.09 2.18 2.46 4.56 3.55 6.77l2.97 5.59c0.19 0.37 0.35 0.74 0.56 1.12l2.99 5.65c1.08 2.17 2.49 4.6 3.53 6.72 0.46 0.92 0.92 1.32 2.15 1.32h3.3c1 0 1.86-0.71 1.86-1.69v-40.05c0-0.58-0.37-1.18-0.93-1.18h-3.3c-0.6 0-0.92 0.63-0.94 1.26l0.01 33.7-1.19-2.2c-0.2-0.39-0.4-0.71-0.59-1.1l-1.16-2.23c-1.05-2.12-2.43-4.52-3.53-6.71-0.2-0.41-0.38-0.68-0.59-1.1l-1.75-3.33c-1.08-2.18-2.44-4.54-3.53-6.72l-5.27-10.05c-0.39-0.78-0.78-1.52-1.95-1.52h-3.98c-0.42 0-0.8 0.2-1.03 0.41-0.18 0.16-0.49 0.63-0.49 0.94z" image-rendering="optimizeQuality"/>
      <path class="fil0" d="m-101.84 598.22c1.21 0 1.14 0.58 1.56 2 0.26 0.89 0.48 1.76 0.71 2.59 0.93 3.3 1.86 6.95 2.82 10.22l1.43 5.09h-12.7c0.16-0.33 0.25-0.84 0.37-1.24l4.59-16.58c0.21-0.74 0.38-2.08 1.22-2.08zm-0.17-4.66h0.98c1.75 0.13 3.4 0.94 4.48 2.51 0.51 0.75 0.72 1.67 1 2.64l4.04 14.24c1.07 3.82 2.16 7.58 3.24 11.41 0.84 3.01 2.08 7.05 2.84 10.03 0.21 0.83 0.98 2.52-0.66 2.52h-3.22c-0.84 0-1.08-0.57-1.25-1.2l-3.66-12.94h-14.9c-0.29 1.26-0.73 2.49-1.05 3.78l-2.58 9.27c-0.18 0.63-0.49 1.09-1.28 1.09h-3.22c-0.9 0-1.01-0.48-1.01-1.1 0-0.35 0.26-1.1 0.37-1.48l9.32-32.77c0.28-1 0.57-1.91 0.82-2.9 0.46-1.81 1.16-3.45 2.95-4.33 0.88-0.44 1.84-0.7 2.79-0.77z" image-rendering="optimizeQuality"/>
      <path class="fil0" d="m-151.96 612.87c0 6.6-0.55 13.14 3.39 18.71l1.41 1.71c2.26 2.26 5.17 3.49 8.39 3.89 2.58 0.33 7.74-0.07 10.19-0.34 0.81-0.08 3.28-0.25 3.83-0.75 0.28-0.26 0.39-0.7 0.39-1.21v-18.88c0-0.83-0.37-1.52-1.27-1.52-1.09 0-3.26-0.21-3.74 0.32-0.18 0.2-0.32 0.5-0.32 0.86v16.51c-0.43 0-1.2 0.07-1.65 0.14l-1.65 0.12c-4.59 0.06-8.32 0.77-11.49-3.93-1.67-2.49-2.15-6.33-2.15-9.45 0-3.3-0.2-9.53 0.48-12.48 0.47-2.03 1.07-3.5 2.2-5 0.23-0.32 0.42-0.47 0.69-0.75 0.54-0.54 0.95-0.84 1.61-1.26 2.31-1.46 6.02-1.17 8.83-1.17l3.97 0.08c1.26 0.07 2.46 0.26 3.81 0.26 0.4 0 0.6-0.2 0.6-0.59v-2.8c0-1.01-0.85-0.95-1.92-1.12-3.17-0.53-7.17-0.66-10.53-0.66-2.47 0-5.3 0.75-6.97 1.58-1.77 0.89-3.53 2.33-4.66 3.98-2.62 3.79-3.44 7.45-3.44 13.75z" image-rendering="optimizeQuality"/>
      <path class="fil0" d="m-221.81 604.4v21.93c0 3.53 0.73 6.73 3.46 8.73 1.89 1.39 4.49 1.98 6.96 2.19l11.8-0.13c2.24-0.34 2 0.63 2-3.93 0-0.23-0.09-0.42-0.23-0.54-0.29-0.27-1.54-0.14-2.23-0.14h-9.48c-1.92 0-4.15-0.22-5.25-1.01-1.3-0.93-1.7-2.47-1.7-4.66v-9.99h17.53c1.7 0 1.36-1.86 1.36-3.3 0-0.76-0.62-1.27-1.36-1.27h-17.53v-8.22c0-5.11 2.29-5.67 7.03-5.67l11.09-0.01c0.53-0.06 0.77-0.22 0.77-0.84v-2.71c0-1.1-0.94-1-2.12-1.01l-3.05-0.17c-1.31 0-2.84-0.06-4.43-0.09h-2.66c-1.86 0.05-3.66 0.21-5.13 0.65-2.88 0.86-5 2.28-6.08 5.27-0.48 1.33-0.75 3.09-0.75 4.92z" image-rendering="optimizeQuality"/>
      <path class="fil0" d="m-85.496 644.45c0 1.84-0.21 2.25 0.95 2.52 2.72 0.66 7.35 0.32 9.41-1.74 1.3-1.3 2.09-3.3 2.09-5.86v-44.37c0-0.45-0.46-1.01-0.93-1.01h-3.39c-0.5 0-0.84 0.39-0.95 0.82-0.17 0.62-0.06 39.53-0.06 42.1 0 5.21 0.15 6.18-4.75 6.18-1.45 0-2.37-0.18-2.37 1.36z" image-rendering="optimizeQuality"/>
    </g>
    <g transform="matrix(.67296 0 0 .67296 -53.158 261.2)" stroke="#17a85f" stroke-linecap="round" stroke-linejoin="round">
      <rect x="10.557" y="-116.9" width="34.639" height="34.639" ry="8.9504" fill="none" stroke-width=".95826" style="paint-order:markers fill stroke"/>
      <path d="m21.295-111.91-3.5481 5.6766c-2.9897 4.7832-3.5442 5.6866-3.5233 5.7401 0.01361 0.0351 1.6098 2.6379 3.5471 5.7844l3.5223 5.7206h6.3607v6.9263h0.52391v-6.9266l6.3538-0.0176 3.493-5.7347c1.9211-3.1543 3.4983-5.7544 3.5049-5.7785 0.0066-0.024-1.5657-2.5982-3.494-5.7204l-3.5059-5.6776h-6.6172zm0.2882 0.53863 12.663 0.018 3.3407 5.4097c3.0848 4.9952 3.3379 5.4148 3.3047 5.4757-0.0198 0.0359-1.5292 2.5177-3.3542 5.5142l-3.3183 5.4479h-6.0412l0.0016-3.0784 0.0016-3.0785 3.3316-3.1585c1.8323-1.7372 3.3315-3.1667 3.3316-3.1765 5.7e-5 -0.01-0.07738-0.10133-0.17212-0.20363l-0.17233-0.18582-0.15529 0.14973c-0.08538 0.0827-1.5044 1.4294-3.1535 2.9934l-2.9984 2.844-0.0073-5.4316-0.0073-5.4315h-0.52376l-0.0073 3.4349-0.0073 3.435-3.4496-3.1991-3.4496-3.1993-0.18183 0.17815c-0.10007 0.0979-0.18203 0.18615-0.18203 0.19597 0 0.01 1.6375 1.5356 3.6388 3.3903l3.6388 3.372v10.149h-6.0481l-0.04236-0.06628c-0.25645-0.39752-6.7271-10.927-6.7295-10.95-0.0018-0.0176 1.516-2.4653 3.373-5.4394z" fill="#17a85f" stroke-width=".29719" style="paint-order:markers fill stroke"/>
    </g>
  </g>
</svg>
